<svg version="1" xmlns="http://www.w3.org/2000/svg" width="933.333" height="933.333" viewBox="0 0 700.000000 700.000000"><path d="M519.4 88c-9.9 2.1-18.9 10.2-21.9 19.7-1.6 5-1.7 22.7-1.7 241.7 0 130 .3 237.8.7 239.7 3 14 16.5 24.2 30.7 23.2 6.8-.4 15.2-4.8 19.8-10.2 7.7-9 7.1 13 7.1-252.3.1-219.7-.1-237.7-1.6-242.3-4.7-13.8-19.3-22.4-33.1-19.5zM344 263.4c-9.1 1.9-15.7 6.9-20.2 15.6l-2.3 4.5v154c0 151.1 0 154.1 2 158 9.5 19.4 35.5 22.7 48.8 6.2 7.2-8.7 6.7 2.8 6.7-163.8 0-103-.3-151.3-1.1-154.2-3.6-14.3-18.7-23.4-33.9-20.3zM169.1 438.1c-9.7 1.9-18.6 9.9-21.6 19.5-1.6 5-1.7 11.3-1.7 67 0 33.8.4 62.9.8 64.7 2.3 10.7 11.6 20.3 21.7 22.3 10.4 2.2 20-.7 27.6-8.4 8.5-8.7 8.3-6.2 8.3-77.9 0-56.4-.2-63.3-1.7-67.8-4.8-14-18.8-22.2-33.4-19.4z"/></svg>